<?xml version="1.0" standalone="no"?>
<!DOCTYPE svg PUBLIC "-//W3C//DTD SVG 20010904//EN"
 "http://www.w3.org/TR/2001/REC-SVG-20010904/DTD/svg10.dtd">
<svg version="1.0" xmlns="http://www.w3.org/2000/svg"
 width="166.000000pt" height="207.000000pt" viewBox="0 0 166.000000 207.000000"
 preserveAspectRatio="xMidYMid meet">

<g transform="translate(0.000000,207.000000) scale(0.100000,-0.100000)"
fill="#000000" stroke="none">
<path d="M826 1801 c-3 -5 -22 -60 -43 -122 -20 -63 -67 -175 -105 -249 -37
-74 -68 -138 -68 -142 0 -5 11 -8 24 -8 21 0 32 14 70 83 24 45 63 127 86 182
23 55 46 104 51 109 5 5 13 -3 19 -20 24 -64 85 -191 116 -245 19 -32 34 -60
34 -63 0 -3 -37 -6 -82 -8 -75 -3 -83 -5 -83 -23 0 -19 8 -20 102 -23 l103 -3
35 -55 c20 -31 70 -103 111 -160 91 -126 132 -210 146 -300 37 -238 -122 -477
-357 -539 -118 -30 -267 -11 -369 49 -70 41 -153 132 -192 211 -42 85 -57 185
-43 283 10 67 10 67 94 152 47 47 85 89 85 93 0 10 -26 37 -35 37 -3 0 -32
-26 -63 -57 l-57 -58 -3 83 -3 82 -29 0 -30 0 0 -82 0 -83 -51 58 c-49 55 -52
57 -70 41 -11 -9 -19 -20 -19 -24 0 -4 32 -43 70 -86 46 -52 68 -84 64 -94 -3
-8 -8 -53 -11 -100 -10 -164 42 -298 161 -416 115 -113 267 -173 407 -160 240
22 426 176 494 411 13 45 16 81 12 154 -8 153 -21 181 -200 435 -42 60 -77
112 -77 117 0 5 65 9 145 9 l145 0 0 25 0 25 -169 0 -169 0 -81 163 c-46 92
-91 198 -104 244 -16 62 -26 83 -39 83 -9 0 -19 -4 -22 -9z"/>
</g>
</svg>
